<svg xmlns="http://www.w3.org/2000/svg" xmlns:xlink="http://www.w3.org/1999/xlink" width="118" height="44" viewBox="0 0 118 44">
  <defs>
    <style>
      .cls-1 {
        fill: #fff;
        stroke: #707070;
      }

      .cls-2 {
        clip-path: url(#clip-path);
      }

      .cls-3 {
        fill: url(#linear-gradient);
      }

      .cls-4 {
        fill: url(#linear-gradient-2);
      }

      .cls-5 {
        fill: url(#linear-gradient-3);
      }

      .cls-6 {
        fill: url(#linear-gradient-4);
      }

      .cls-7 {
        fill: url(#linear-gradient-5);
      }

      .cls-8 {
        fill: url(#linear-gradient-6);
      }

      .cls-9 {
        fill: rgba(0,0,0,0.57);
        stroke: #000;
        stroke-width: 0.191px;
        font-size: 17px;
        font-family: Broadway;
      }

      .cls-10 {
        fill: #01095a;
        stroke: #010958;
        stroke-width: 0.191px;
        font-size: 21px;
        font-family: OCRAExtended, OCR A;
      }
    </style>
    <clipPath id="clip-path">
      <rect id="Rectángulo_11" data-name="Rectángulo 11" class="cls-1" width="118" height="44" transform="translate(106 22)"/>
    </clipPath>
    <linearGradient id="linear-gradient" x1="0.5" x2="0.5" y2="1" gradientUnits="objectBoundingBox">
      <stop offset="0"/>
      <stop offset="1" stop-color="#6a6767" stop-opacity="0.31"/>
    </linearGradient>
    <linearGradient id="linear-gradient-2" x1="0.5" x2="0.5" y2="1" gradientUnits="objectBoundingBox">
      <stop offset="0"/>
      <stop offset="0.047" stop-color="#2b2b2b"/>
      <stop offset="1" stop-color="#6a6767"/>
    </linearGradient>
    <linearGradient id="linear-gradient-3" x1="0.5" x2="0.5" y2="1" gradientUnits="objectBoundingBox">
      <stop offset="0" stop-color="#0314af"/>
      <stop offset="1" stop-color="#01084a"/>
    </linearGradient>
    <linearGradient id="linear-gradient-4" x1="0.31" y1="0.5" x2="1" y2="0.714" gradientUnits="objectBoundingBox">
      <stop offset="0"/>
      <stop offset="1" stop-color="#020f88"/>
    </linearGradient>
    <linearGradient id="linear-gradient-5" x1="0.744" y1="0.303" x2="0.5" y2="1" gradientUnits="objectBoundingBox">
      <stop offset="0" stop-color="#0c0c0c"/>
      <stop offset="1" stop-color="#5c5c5c"/>
    </linearGradient>
    <linearGradient id="linear-gradient-6" x1="0.5" x2="0.5" y2="1" gradientUnits="objectBoundingBox">
      <stop offset="0" stop-color="#010a5d"/>
      <stop offset="1" stop-color="#02094a"/>
    </linearGradient>
  </defs>
  <g id="Enmascarar_grupo_8" data-name="Enmascarar grupo 8" class="cls-2" transform="translate(-106 -22)">
    <g id="Grupo_6" data-name="Grupo 6" transform="translate(-11.36 -27.991)">
      <g id="Grupo_4" data-name="Grupo 4" transform="translate(141.787 31.404)">
        <g id="Grupo_2" data-name="Grupo 2" transform="translate(-47.576 -18.993)">
          <path id="Sustracción_5" data-name="Sustracción 5" class="cls-3" d="M74.277,59.36a19.185,19.185,0,0,1-9.968-2.783,18.867,18.867,0,0,1-2.891-2.16,18.487,18.487,0,0,1-2.426-2.685,18.254,18.254,0,0,1-3.26-14.122,18.479,18.479,0,0,1,1-3.477c.168-.423.355-.846.555-1.258a2.865,2.865,0,0,0,.3.015,2.684,2.684,0,0,0,2.727-2.633,2.559,2.559,0,0,0-.406-1.383c.232-.274.474-.543.72-.8a19.31,19.31,0,0,1,9.683-5.5,19.732,19.732,0,0,1,3.364-.477,18.533,18.533,0,0,0,7.178,35.739c.354,0,.712-.01,1.066-.029a19.774,19.774,0,0,1-7.641,1.552Z" transform="translate(-29.474 20.891)"/>
          <path id="Sustracción_2" data-name="Sustracción 2" class="cls-4" d="M19.089,37.237a19.229,19.229,0,0,1-13.5-5.454A18.864,18.864,0,0,1,3.26,29.028,18.482,18.482,0,0,1,1.5,25.865a18.256,18.256,0,0,1,0-14.494A18.482,18.482,0,0,1,3.26,8.208,18.863,18.863,0,0,1,5.591,5.454a19.153,19.153,0,0,1,6.068-3.991A19.384,19.384,0,0,1,19.089,0a19.753,19.753,0,0,1,3.388.292A18.723,18.723,0,0,0,6.77,18.619a18.724,18.724,0,0,0,15.7,18.327,19.745,19.745,0,0,1-3.385.292Z" transform="translate(20.163 58.488) rotate(-36.011)"/>
          <path id="Sustracción_4" data-name="Sustracción 4" class="cls-5" d="M66.4,56.366a19.161,19.161,0,0,1-6.422-1.109,19.38,19.38,0,0,1-6.5-3.885,19.74,19.74,0,0,1-2.32-2.482,19.2,19.2,0,0,0,10.206,2.958,18.476,18.476,0,0,0,13.726-6.069,18.721,18.721,0,0,0,.593-24.125A19.743,19.743,0,0,1,78.391,23.7a19.311,19.311,0,0,1,5.8,9.5,18.993,18.993,0,0,1,.6,5.713,2.646,2.646,0,0,0-2.068,2.555,2.607,2.607,0,0,0,1.214,2.191c-.028.089-.056.175-.083.255a18.254,18.254,0,0,1-9.7,10.77,18.46,18.46,0,0,1-3.424,1.172,18.868,18.868,0,0,1-3.576.489C66.9,56.361,66.651,56.366,66.4,56.366Z" transform="translate(-23.675 24.53)"/>
          <ellipse id="Elipse_7" data-name="Elipse 7" class="cls-6" cx="2.727" cy="2.633" rx="2.727" ry="2.633" transform="translate(45.319 38.55)"/>
          <circle id="Elipse_10" data-name="Elipse 10" class="cls-7" cx="1.692" cy="1.692" r="1.692" transform="translate(23.694 48.516)"/>
          <circle id="Elipse_11" data-name="Elipse 11" class="cls-8" cx="1.316" cy="1.316" r="1.316" transform="translate(61.867 68.073)"/>
          <g id="Grupo_1" data-name="Grupo 1" transform="translate(0 -0.94)">
            <text id="M" class="cls-9" transform="translate(36.669 64.688)"><tspan x="0" y="0">M</tspan></text>
            <text id="A" class="cls-9" transform="translate(40.618 67.321)"><tspan x="0" y="0">A</tspan></text>
          </g>
        </g>
      </g>
      <text id="Manuel_Alexander" data-name="Manuel Alexander" class="cls-10" transform="translate(160.155 77.851)"><tspan x="0" y="0">MAsoft</tspan></text>
    </g>
  </g>
</svg>
